HIERARCHY
ROOT SpineBase
{
  OFFSET 0.000000 0.000000 0.000000
  CHANNELS 6 Xposition Yposition Zposition Zrotation Xrotation Yrotation
  JOINT SpineMid
  {
    OFFSET -0.000000 31.600650 0.000000
    CHANNELS 3 Zrotation Xrotation Yrotation
    JOINT SpineShoulder
    {
      OFFSET 0.185960 23.444168 -0.857465
      CHANNELS 3 Zrotation Xrotation Yrotation
      JOINT Neck
      {
        OFFSET 0.132203 7.747335 -0.635215
        CHANNELS 3 Zrotation Xrotation Yrotation
        JOINT Head
        {
          OFFSET 5.394192 12.330642 5.624959
          CHANNELS 3 Zrotation Xrotation Yrotation
          End Site
          {
            OFFSET 0 0 0
          }
        }
      }
      JOINT ShoulderLeft
      {
        OFFSET -7.729851 -3.764417 -13.867219
        CHANNELS 3 Zrotation Xrotation Yrotation
        JOINT ElbowLeft
        {
          OFFSET -8.067627 -21.883727 -6.712624
          CHANNELS 3 Zrotation Xrotation Yrotation
          JOINT WristLeft
          {
            OFFSET 0.786449 -24.022950 -8.099325
            CHANNELS 3 Zrotation Xrotation Yrotation
            JOINT HandLeft
            {
              OFFSET 0.780372 -8.216579 -3.736826
              CHANNELS 3 Zrotation Xrotation Yrotation
              JOINT HandTipLeft
              {
                OFFSET 0.510043 -6.206723 -1.562263
                CHANNELS 3 Zrotation Xrotation Yrotation
                End Site
                {
                  OFFSET 0 0 0
                }
              }
              JOINT ThumbLeft
              {
                OFFSET -2.963662 -2.469227 -2.117151
                CHANNELS 3 Zrotation Xrotation Yrotation
                End Site
                {
                  OFFSET 0 0 0
                }
              }
            }
          }
        }
      }
      JOINT ShoulderRight
      {
        OFFSET 8.567724 -4.262269 12.245739
        CHANNELS 3 Zrotation Xrotation Yrotation
        JOINT ElbowRight
        {
          OFFSET 0.517687 -24.781141 1.858634
          CHANNELS 3 Zrotation Xrotation Yrotation
          JOINT WristRight
          {
            OFFSET 4.600203 -23.868890 3.980290
            CHANNELS 3 Zrotation Xrotation Yrotation
            JOINT HandRight
            {
              OFFSET 1.706569 -4.853007 0.321227
              CHANNELS 3 Zrotation Xrotation Yrotation
              JOINT HandTipRight
              {
                OFFSET 4.285738 -6.450114 -0.492916
                CHANNELS 3 Zrotation Xrotation Yrotation
                End Site
                {
                  OFFSET 0 0 0
                }
              }
              JOINT ThumbRight
              {
                OFFSET -1.713618 -1.819717 -1.252234
                CHANNELS 3 Zrotation Xrotation Yrotation
                End Site
                {
                  OFFSET 0 0 0
                }
              }
            }
          }
        }
      }
    }
  }
  JOINT HipLeft
  {
    OFFSET -3.127392 1.322212 -8.935154
    CHANNELS 3 Zrotation Xrotation Yrotation
    JOINT KneeLeft
    {
      OFFSET -9.571345 -35.606698 -3.312789
      CHANNELS 3 Zrotation Xrotation Yrotation
      JOINT AnkleLeft
      {
        OFFSET -6.522748 -38.293616 6.432300
        CHANNELS 3 Zrotation Xrotation Yrotation
        JOINT FootLeft
        {
          OFFSET 9.858878 -4.301325 -8.293610
          CHANNELS 3 Zrotation Xrotation Yrotation
          End Site
          {
            OFFSET 0 0 0
          }
        }
      }
    }
  }
  JOINT HipRight
  {
    OFFSET 4.332422 -0.050599 1.409140
    CHANNELS 3 Zrotation Xrotation Yrotation
    JOINT KneeRight
    {
      OFFSET 0.130511 -38.247007 1.512011
      CHANNELS 3 Zrotation Xrotation Yrotation
      JOINT AnkleRight
      {
        OFFSET -5.763115 -36.459107 5.866358
        CHANNELS 3 Zrotation Xrotation Yrotation
        JOINT FootRight
        {
          OFFSET 9.167856 -4.045913 -9.339591
          CHANNELS 3 Zrotation Xrotation Yrotation
          End Site
          {
            OFFSET 0 0 0
          }
        }
      }
    }
  }
}
MOTION
Frames: 16
Frame Time: 0.033333
-58.843178 83.066804 369.954353 0.000000 0.000000 -54.202646 -0.000000 -0.000000 54.202646 -0.000000 0.000000 0.000000 -0.000000 0.000000 0.000000 0.000000 0.000000 0.000000 -0.000000 0.000000 0.000000 -0.000000 0.000000 0.000000 -0.000000 0.000000 0.000000 -0.000000 0.000000 0.000000 0.000000 0.000000 0.000000 0.000000 0.000000 0.000000 -0.000000 0.000000 0.000000 -0.000000 0.000000 0.000000 -0.000000 0.000000 0.000000 -0.000000 0.000000 0.000000 0.000000 0.000000 0.000000 0.000000 0.000000 0.000000 -0.000000 -0.000000 54.202646 -0.000000 0.000000 0.000000 -0.000000 0.000000 0.000000 0.000000 0.000000 0.000000 -0.000000 -0.000000 54.202646 -0.000000 0.000000 0.000000 -0.000000 0.000000 0.000000 0.000000 0.000000 0.000000
-58.520650 83.218301 370.011035 0.304765 -0.218863 -54.631995 -0.354877 -0.121839 54.632200 -0.000000 0.000000 0.000000 -0.000000 0.000000 0.000000 0.000000 0.000000 0.000000 0.149849 1.018786 -0.421942 2.568542 -0.912984 -0.445430 1.611157 1.898115 -0.932558 -0.131977 -6.455281 0.617005 0.000000 0.000000 0.000000 0.000000 0.000000 0.000000 -0.000000 0.000000 0.000000 -1.154351 -0.436313 -0.281354 -0.413840 -0.411387 -0.130184 -1.972952 0.575295 0.538297 0.000000 0.000000 0.000000 0.000000 0.000000 0.000000 -0.354877 -0.121839 54.632200 -0.000000 0.000000 0.000000 0.369192 1.857937 3.408250 0.000000 0.000000 0.000000 -0.768728 -1.860839 54.557234 1.656828 0.671102 0.058100 -0.000000 0.000000 0.000000 0.000000 0.000000 0.000000
-58.214469 83.336979 370.041553 0.564105 -0.428111 -54.936869 -0.674479 -0.215798 54.937706 -0.000000 0.000000 0.000000 -0.000000 0.000000 0.000000 0.000000 0.000000 0.000000 0.307639 1.853715 -0.779681 4.709611 -1.790593 -0.752070 2.403179 2.715140 -1.588372 0.316502 -10.263840 1.325366 0.000000 0.000000 0.000000 0.000000 0.000000 0.000000 -0.000000 0.000000 0.000000 -1.950399 -0.583832 -0.448822 -0.877184 -0.877931 -0.283254 -3.856261 1.110501 1.149371 0.000000 0.000000 0.000000 0.000000 0.000000 0.000000 -0.674479 -0.215798 54.937706 -0.000000 0.000000 0.000000 0.317424 3.027119 5.971635 0.000000 0.000000 0.000000 -1.456536 -3.168844 54.797699 2.864185 1.062454 0.090342 -0.000000 0.000000 0.000000 0.000000 0.000000 0.000000
-57.924635 83.422837 370.045906 0.778077 -0.627805 -55.119803 -0.959957 -0.279299 55.121726 0.647008 -0.664302 0.068111 -0.646261 0.665028 -0.060609 0.000000 0.000000 0.000000 -0.173236 3.166684 -1.137636 6.412738 -2.628661 -0.950705 2.668095 2.655780 -1.993812 0.875138 -11.626017 1.927556 0.000000 0.000000 0.000000 0.000000 0.000000 0.000000 -0.646261 0.665028 -0.060609 -2.389684 -0.448294 -0.495969 -1.408053 -1.412885 -0.467237 -5.555075 1.646928 1.825877 0.000000 0.000000 0.000000 0.000000 0.000000 0.000000 -0.959957 -0.279299 55.121726 -0.000000 0.000000 0.000000 -0.078044 3.535529 7.794667 0.000000 0.000000 0.000000 -2.079776 -3.922362 54.933231 4.348985 1.599146 0.142408 -0.724239 -0.422410 -0.052349 0.000000 0.000000 0.000000
-57.651148 83.475875 370.024096 0.946709 -0.818007 -55.183027 -0.207046 -0.126707 55.222540 0.083648 -0.141322 0.049192 -0.806984 0.862773 -0.074851 0.000000 0.000000 0.000000 -0.167951 3.824004 -1.380213 7.673974 -3.425950 -1.069077 2.589019 1.801665 -2.184891 1.277399 -10.692076 2.277746 0.000000 0.000000 0.000000 0.000000 0.000000 0.000000 -0.806984 0.862773 -0.074851 -2.474429 -0.032181 -0.421320 -2.026091 -2.029894 -0.691322 -6.993804 2.222229 2.561745 0.000000 0.000000 0.000000 0.000000 0.000000 0.000000 -1.212067 -0.310229 55.186504 -0.760990 -0.451268 -0.053861 -0.031850 3.842372 8.986534 0.000000 0.000000 0.000000 -2.647975 -4.120444 54.971493 3.944516 1.009024 0.124724 -0.000000 0.000000 0.000000 0.000000 0.000000 0.000000
-57.394007 83.496093 369.976121 1.070001 -0.998780 -55.128457 -0.213351 -0.129231 55.176491 0.100095 -0.149547 0.057597 -0.940456 1.048648 -0.086452 0.000000 0.000000 0.000000 -0.135527 4.279120 -1.551834 8.492380 -4.182976 -1.130479 2.260150 0.132193 -2.188326 1.421758 -7.504384 2.319760 0.000000 0.000000 0.000000 0.000000 0.000000 0.000000 -0.940456 1.048648 -0.086452 -2.206984 0.665456 -0.228070 -2.752236 -2.742375 -0.965955 -8.114471 2.869528 3.351713 0.000000 0.000000 0.000000 0.000000 0.000000 0.000000 -2.159204 -0.846114 55.128806 -0.072112 -0.925270 -0.057709 -0.906110 3.205697 9.448841 0.000000 0.000000 0.000000 -3.164108 -3.760895 54.919313 3.822270 0.565006 0.134247 -0.000000 0.000000 0.000000 0.000000 0.000000 0.000000
-57.325122 83.482806 369.961147 1.045870 -1.163394 -55.461266 -0.172476 -0.129704 55.512580 0.123809 -0.148856 0.060907 -0.962986 1.245286 -0.089811 0.000000 0.000000 0.000000 0.052455 4.464597 -1.629435 8.632057 -5.268231 -1.112597 0.901314 -2.913779 -1.673350 1.667183 -1.384363 1.750432 0.000000 0.000000 0.000000 0.000000 0.000000 0.000000 -0.962986 1.245286 -0.089811 -1.768107 1.077863 -0.070815 -2.485354 -4.110160 -1.452863 -8.592538 4.201270 4.155381 0.000000 0.000000 0.000000 0.000000 0.000000 0.000000 -2.460179 -0.693647 55.421411 -0.134826 -1.245950 -0.016460 -1.427924 2.223949 8.406617 0.000000 0.000000 0.000000 -3.395258 -2.857478 55.292113 3.232444 -0.005019 0.127933 1.690844 1.658016 -0.159956 0.000000 0.000000 0.000000
-57.148845 83.433705 369.848434 1.024701 -1.325064 -55.178627 -0.125745 -0.082085 55.233924 0.138237 -0.116466 0.064561 -1.021261 1.386958 -0.095124 0.000000 0.000000 0.000000 0.168767 4.514174 -1.666115 8.578362 -6.040904 -1.096173 -0.725730 -7.629960 -1.032661 2.658547 8.266114 0.760767 0.000000 0.000000 0.000000 0.000000 0.000000 0.000000 -1.021261 1.386958 -0.095124 -0.646826 2.369109 0.363819 -4.535994 -5.765174 -2.275214 -7.293528 5.969451 5.455358 0.000000 0.000000 0.000000 0.000000 0.000000 0.000000 -2.923520 -0.569609 55.084279 -0.102947 -1.755683 0.045374 -6.125698 -2.195677 8.485296 0.000000 0.000000 0.000000 -3.737184 -1.286172 55.082349 1.263359 -1.503201 0.014617 0.903278 0.497582 0.062889 0.000000 0.000000 0.000000
-56.884054 83.321499 369.656570 1.170466 -1.442324 -54.597361 -0.070180 0.028146 54.664580 0.165074 -0.055664 0.077916 -1.314645 1.427319 -0.115871 0.000000 0.000000 0.000000 0.102654 4.287395 -1.669840 7.592162 -6.595805 -0.933866 -2.094679 -13.745209 -0.612376 2.120806 19.118494 0.608381 0.000000 0.000000 0.000000 0.000000 0.000000 0.000000 -1.341078 2.300562 -0.098874 1.231440 2.132874 0.752806 -5.854619 -5.966073 -2.567481 -8.956599 6.252878 6.006103 0.000000 0.000000 0.000000 0.000000 0.000000 0.000000 -3.596442 -0.870308 54.481713 0.359742 -2.246574 0.093969 -9.768853 -5.623360 7.722975 0.000000 0.000000 0.000000 -4.189270 0.289684 54.580622 -1.256725 -3.458542 -0.216092 1.363502 1.093919 1.767322 0.000000 0.000000 0.000000
-56.461245 83.202551 369.461414 1.357304 -1.559061 -53.685518 -0.072988 0.018597 53.763951 0.129781 -0.049931 0.084296 -1.165679 0.288596 0.286856 0.000000 0.000000 0.000000 0.107087 4.070289 -1.610213 6.457009 -7.021472 -0.776183 -2.002536 -19.253796 -0.927654 1.126950 30.075605 1.232764 0.000000 0.000000 0.000000 0.000000 0.000000 0.000000 -1.455031 1.542692 -0.126154 2.782067 6.428442 1.555186 -8.459607 -6.147010 -2.845303 -7.740237 5.051148 5.744151 0.000000 0.000000 0.000000 0.000000 0.000000 0.000000 -4.414769 -1.265976 53.548308 0.974550 -2.798221 0.146209 -11.788387 -7.309112 7.334231 0.000000 0.000000 0.000000 -4.751120 2.663813 53.800082 -3.722677 -5.834919 -0.486370 0.482522 0.413155 2.598514 0.000000 0.000000 0.000000
-56.013150 83.199011 369.338846 1.515781 -1.788459 -52.904266 -0.063517 -0.023630 52.995532 0.110389 -0.050608 0.091022 -1.301036 -0.488081 0.752725 0.000000 0.000000 0.000000 0.242966 3.644995 -1.453341 5.166053 -7.391455 -0.741977 -0.093280 -21.015972 -1.858309 -0.710355 36.098158 2.420418 0.000000 0.000000 0.000000 0.000000 0.000000 0.000000 -1.164935 0.904437 -0.132750 3.733181 11.519042 2.302656 -12.860905 -5.906045 -3.495350 -9.318824 2.934378 5.800357 0.000000 0.000000 0.000000 0.000000 0.000000 0.000000 -5.271443 -1.395675 52.722408 1.408871 -3.532385 0.243115 -11.654854 -6.944436 6.969679 0.000000 0.000000 0.000000 -5.638575 5.542353 53.202853 -5.487448 -8.321827 -0.720075 -3.801685 -3.996004 1.489066 0.000000 0.000000 0.000000
-55.266822 83.142802 369.098615 1.328456 -2.030838 -49.902388 -0.087336 -0.043256 49.988110 0.074527 -0.050033 0.080553 -0.824083 -2.438100 1.653840 0.000000 0.000000 0.000000 0.411184 3.060732 -1.100507 5.928568 -6.899143 -1.352242 1.328003 -20.856055 -2.313913 -1.267302 38.785070 2.455988 0.000000 0.000000 0.000000 0.000000 0.000000 0.000000 -1.043346 0.625007 -0.134703 4.344029 17.470850 3.178167 -15.343334 -5.304999 -3.759234 -12.875406 -2.058433 2.799410 0.000000 0.000000 0.000000 0.000000 0.000000 0.000000 -5.778442 -0.321836 49.592132 0.709173 -4.767291 0.383507 -9.207357 -4.406201 7.909722 0.000000 0.000000 0.000000 -5.719460 9.188586 50.421553 -6.220289 -10.351672 -0.679410 -7.529588 -5.487643 4.409934 0.000000 0.000000 0.000000
-54.434375 83.087184 368.776474 0.842884 -2.242111 -45.821002 -0.134742 -0.022683 45.882935 0.041627 -0.031558 0.056266 0.529500 -5.225614 2.694497 0.000000 0.000000 0.000000 0.460940 2.414352 -0.596402 8.173533 -5.750198 -2.433060 4.999242 -18.450450 -3.476949 -4.771824 35.891893 4.068450 0.000000 0.000000 0.000000 0.000000 0.000000 0.000000 -0.943279 0.325981 -0.133917 4.812170 23.963388 4.174976 -18.911548 -2.753607 -3.719441 -13.111415 -8.213621 -1.490837 0.000000 0.000000 0.000000 0.000000 0.000000 0.000000 -5.511368 1.680478 45.327295 -0.982932 -6.135969 0.507844 -4.960131 -0.182463 9.165283 0.000000 0.000000 0.000000 -4.758142 12.895677 46.472855 -5.289009 -11.416951 -0.134569 -14.428918 -10.284835 3.121834 0.000000 0.000000 0.000000
-53.729675 83.125964 368.499537 0.282553 -2.464525 -41.545688 -0.167100 0.014795 41.578645 0.021001 -0.015170 0.030491 0.989256 -8.031272 4.216068 0.000000 0.000000 0.000000 0.328327 1.692425 0.017668 11.873092 -4.221343 -4.096329 8.303662 -12.866860 -4.858713 -6.118637 26.981940 4.550845 0.000000 0.000000 0.000000 0.000000 0.000000 0.000000 -1.321836 -0.177223 -0.167979 5.045304 30.314498 5.260295 -24.474830 0.430237 -4.347677 -4.118120 -9.992960 1.649424 0.000000 0.000000 0.000000 0.000000 0.000000 0.000000 -4.602862 4.024615 40.796270 -3.085917 -7.396093 0.612544 -4.767088 2.255161 16.166385 0.000000 0.000000 0.000000 -2.806673 16.281217 42.128640 -3.662368 -11.700968 0.701102 -20.278550 -12.827027 3.698398 0.000000 0.000000 0.000000
-52.536654 82.872019 368.023501 -0.549246 -2.635205 -36.486056 -0.135274 0.048974 36.472852 0.036228 -0.022840 -0.003121 2.256395 -11.273426 5.780038 0.000000 0.000000 0.000000 -0.362240 1.119323 0.839049 18.681600 -1.666659 -6.927647 8.641179 -7.934841 -5.228626 -3.797057 16.286069 4.226708 0.000000 0.000000 0.000000 0.000000 0.000000 0.000000 -1.302519 -0.632255 -0.184444 3.343641 37.555810 7.040241 -31.731357 3.921883 -6.030028 6.968916 -12.567411 6.772898 0.000000 0.000000 0.000000 0.000000 0.000000 0.000000 -3.409734 6.275751 35.439931 -5.189298 -8.793734 0.570491 -1.674768 6.919296 20.763440 0.000000 0.000000 0.000000 0.143294 19.174884 36.737733 -0.892338 -11.563138 1.919001 -25.008707 -12.888086 6.385781 0.000000 0.000000 0.000000
-51.226143 82.392934 367.444625 -1.567030 -2.668181 -31.220841 -0.093816 0.105092 31.148802 0.063279 -0.016470 -0.045212 3.407146 -14.386745 7.393133 0.000000 0.000000 0.000000 -0.037818 -0.034702 1.517065 24.527701 1.588313 -10.079184 10.087266 -0.528809 -6.984627 -0.536812 4.646531 5.649354 0.000000 0.000000 0.000000 0.000000 0.000000 0.000000 -0.995140 -1.394502 -0.198113 -1.423323 46.020311 10.550256 -35.951469 5.070080 -8.852056 21.230928 -9.625594 18.779696 0.000000 0.000000 0.000000 0.000000 0.000000 0.000000 -1.743327 8.351906 29.792769 -7.049164 -10.350587 0.522306 1.514371 12.107760 24.513866 0.000000 0.000000 0.000000 3.840236 21.174818 30.907308 2.364781 -11.058992 3.259521 -28.055970 -10.459961 10.450454 0.000000 0.000000 0.000000
